<?xml version="1.0" encoding="utf-8"?>
<!-- Generator: Adobe Illustrator 25.1.0, SVG Export Plug-In . SVG Version: 6.00 Build 0)  -->
<svg version="1.1" xmlns="http://www.w3.org/2000/svg" xmlns:xlink="http://www.w3.org/1999/xlink" x="0px" y="0px"
	 viewBox="0 0 647.5 429.9" style="enable-background:new 0 0 647.5 429.9;" xml:space="preserve">
<style type="text/css">
	.st0{fill:#6D6F70;}
	.st1{fill:#59595C;}
	.st2{fill:#A96327;}
	.st3{fill:#434345;}
	.st4{fill:#D10069;}
	.st5{fill:#CE659E;}
	.st6{fill:none;stroke:#000000;stroke-width:9;stroke-linecap:round;stroke-miterlimit:10;}
	.st7{fill:none;}
	.st8{fill:#FE7900;}
	.st9{fill:#00C466;}
	.st10{fill:#009951;}
	.st11{fill:#0B4C91;}
	.st12{fill:#A81CF5;}
	.st13{fill:#333333;}
	.st14{fill:#FFFFFF;}
	.st15{fill:#00292D;}
	.st16{fill:#1F0229;}
	.st17{fill:none;stroke:#FF0F0F;stroke-width:5.6693;stroke-linecap:round;stroke-linejoin:round;stroke-miterlimit:28.3465;}
	.st18{fill:#CE5D00;}
	.st19{font-family:'Duper-Bold';}
	.st20{font-size:231.3032px;}
	.st21{fill:none;stroke:#CE659E;stroke-width:5;stroke-linecap:round;stroke-miterlimit:10;}
	.st22{fill:none;stroke:#CE5D00;stroke-width:5;stroke-linecap:round;stroke-miterlimit:10;}
	.st23{fill:none;stroke:#000000;stroke-width:7;stroke-linecap:round;stroke-miterlimit:10;}
	.st24{fill:#FF42E3;}
</style>
<g id="Ebene_1">
	<g>
		<path class="st11" d="M430.4,119.7c0-0.1,0.1-0.1,0.1-0.2c-0.1-0.2-0.3-0.4-0.5-0.6c0,0.1-0.1,0.2,0,0.3
			C430.1,119.4,430.2,119.5,430.4,119.7z"/>
		<rect x="155.4" y="112.8" class="st7" width="356.9" height="174.8"/>
		<text transform="matrix(1 0 0 1 155.3711 272.8597)" class="st19 st20">R2R</text>
		<path d="M272.1,287.6c-1.9-1.5-4.9-1.6-7.2-1.8c-2.4-0.2-4.8-0.4-7.3-0.4c-1,0-2,0-3,0c0-0.2-0.1-0.4-0.1-0.7
			c-0.1-0.6-0.2-1.5-0.2-2.3c0-1.8,0.2-3.2,0.9-5c0.3-0.9-0.4-1.9-1.2-2.1c-1-0.2-1.8,0.3-2.1,1.2c-0.7,1.9-1,3.9-1,5.9
			c0,1,0.1,2,0.4,3c0,0,0,0.1,0,0.1c-2.7,0.2-5.5,0.5-8.2,0.8c-0.9,0.1-1.7,0.7-1.7,1.7c0,0.9,0.8,1.9,1.7,1.7
			c4.7-0.6,9.4-0.7,14.2-0.6c2.3,0.1,4.6,0.2,6.9,0.4c1.2,0.1,2.4,0.3,3.6,0.4c1.2,0.1,2.5,0.3,3.6-0.1
			C272.3,289.6,273,288.4,272.1,287.6z"/>
		<path d="M265.5,292.8c-1.4-0.6-3-0.6-4.5-0.6c-1.6,0-3.1,0.1-4.7,0.2c-3.1,0.1-6.1,0.3-9.2,0.4c-2.6,0.1-2.6,4.1,0,4
			c3.1-0.1,6.1-0.3,9.2-0.4c1.5-0.1,3-0.1,4.5-0.2c1.6-0.1,3.3-0.2,4.7-0.9C266.4,294.8,266.5,293.2,265.5,292.8z"/>
		<path d="M261.6,301.1c-0.5-0.9-1.6-1.1-2.5-1.3c-0.8-0.2-1.6-0.3-2.3-0.3c-1.3-0.1-2.7,0-4,0.1c-0.5,0.1-1,0.2-1.4,0.6
			c-0.3,0.3-0.6,0.9-0.6,1.4c0,0.5,0.2,1.1,0.6,1.4c0.4,0.3,0.9,0.6,1.4,0.6c1.3-0.2,2.5-0.2,3.8-0.1c0.6,0,1.2,0.1,1.8,0.1
			c0.8,0.1,1.8,0.3,2.5-0.2C261.7,302.8,262.1,301.9,261.6,301.1z"/>
		<path d="M314.7,212.3c-2.6,0.8-5.5-0.5-8-1.2c-2.9-0.7-6.2-1.1-8.8,0.7c-1.8,1.2-2.9,3.1-3.6,5.1c-0.6-7.6,0-15.3,1.9-22.7
			c0.9-3.6-4.6-5.1-5.6-1.5c-2.1,7.7-4.3,15.4-6.4,23.1c-1.2,4.4-2.2,9-3.9,13.4c-1.9-11-1-22.3-0.2-33.4c0.3-3.3-4.8-3.8-5.7-0.8
			c-2.6,9.7-5.3,19.3-7.9,29c-1.4-6.2-1.7-12.6-1.9-18.9c-0.1-2.7-4-4.2-5.4-1.5c-1.9,3.8-3.3,7.8-4.1,11.9
			c-6.3,0-12.5,0.1-18.8,0.1c-3.7,0-3.7,5.8,0,5.8c7.1,0,14.1-0.1,21.2-0.1c0.9,0,1.9-0.5,2.4-1.3c0.8,5.2,2.1,10.2,4.4,15
			c1.1,2.3,4.7,1.6,5.3-0.7l3.8-14.1c0.3,6.1,1.2,12.1,3.1,18c0.8,2.4,3.9,2.8,5.3,0.7c3.7-5.5,5.3-12.2,7-18.6
			c0.3,2.5,0.7,5,1.2,7.5c0.4,1.9,2.7,2.5,4.2,1.7c2.5-1.2,3.8-3.8,4.4-6.3c0.5-1.9,0.5-4.9,2.1-6.4c1.6-1.5,4.5-0.2,6.3,0.3
			c3,0.8,6.2,1.6,9.2,0.7C319.8,216.8,318.3,211.2,314.7,212.3z"/>
		<path d="M334.9,231c2.7,0.1,5.4,0.1,8.1,0.2c2.4,0.1,5,0.4,7.1-1.2c1.1-0.9,1.8-2.2,2.2-3.5c0.9,5.5,1.5,11.1,1.6,16.8
			c0.1,3.4,5.1,4.2,6,0.8c2.1-8.4,4.3-16.8,6.4-25.2c0.5,2.4,1,4.9,1.3,7.3c0.7,5,1,10.1,1,15.2c0,2.7,3.3,3.9,5.2,2.1
			c3.5-3.3,2.4-7.6,3.4-11.8c0.6-2.6,4.1-3.8,6.1-1.8c2.8,2.8,7-1.5,4.3-4.3c-3.6-3.7-10-3.6-13.7-0.1c-0.1,0.1-0.1,0.1-0.2,0.2
			c-0.2-1.4-0.4-2.7-0.6-4.1c-0.8-4.7-1.5-13.5-7.9-13.5c-1.3,0-2.6,0.9-2.9,2.2l-3.8,15c-0.6-3.8-1.5-7.6-2.5-11.3
			c-0.8-3-4.9-2.8-5.8,0c-0.6,2-1.3,3.9-1.9,5.9l-1,3.1c-0.1,0.4-0.5,1.6-0.6,1.9c-0.1,0-0.3,0.1-0.4,0.1c-0.4,0-0.8,0-1.2,0
			c-1.1,0-2.2-0.1-3.3-0.1c-2.2-0.1-4.4-0.1-6.6-0.2C331,224.8,331,230.9,334.9,231z"/>
		<g>
			<path d="M486.4,165.7c-2.5,0.4-4.7,2.6-4.9,5.2c-2.2-0.1-4.3-0.1-6.5-0.1c-2.8,0-5.6,0-8.5,0.1c-2,0-2,3.2,0,3.1
				c2.9-0.1,5.7-0.1,8.6-0.2c2.2-0.1,4.5-0.2,6.7-0.4c0.4,0.9,0.9,1.7,1.7,2.4c1,0.8,2.3,1.4,3.6,1.3c1.2,0.8,2.9,0.9,4.3,0.2
				c2.7-1.5,2.8-5.2,1.7-7.7c-0.6-1.3-1.5-2.5-2.8-3.2C489.1,165.6,487.8,165.4,486.4,165.7z M489.1,169.3c0,0,0.1,0,0.1,0.1
				c-0.1-0.1,0.1,0.1,0.2,0.1c0.1,0.1,0.2,0.2,0.3,0.3c0,0,0.1,0.1,0.1,0.2c0,0,0,0,0,0c0.1,0.2,0.2,0.4,0.3,0.5
				c0.1,0.1,0.1,0.2,0.2,0.3c0,0,0,0,0,0c0,0,0,0,0,0.1c0.1,0.2,0.1,0.4,0.2,0.6c0,0.1,0.1,0.2,0.1,0.4c0,0,0,0,0,0c0,0,0,0,0,0
				c0,0.2,0,0.5,0,0.7c0,0,0,0.1,0,0.1c0,0,0,0,0,0.1c0,0.1,0,0.1,0,0.1c0,0.2-0.1,0.5-0.2,0.6c0,0,0,0.1-0.1,0.1
				c-0.1,0.1-0.1,0.2-0.2,0.3c0,0,0,0,0,0c0,0,0,0,0,0c-0.1,0.1-0.2,0.2-0.3,0.3c0,0,0,0,0,0c-0.1,0-0.1,0-0.1,0.1
				c-0.1,0-0.1,0-0.2,0.1c0,0,0,0,0,0c-0.1,0-0.2,0-0.2,0c0,0,0,0,0,0c0,0,0,0,0,0c-0.1,0-0.2-0.1-0.3-0.1c-0.1,0-0.1-0.1-0.2-0.1
				c0,0,0,0,0,0c0,0,0,0,0,0c0,0,0,0,0,0c0,0,0,0,0,0c0,0,0,0,0,0c0,0,0,0,0-0.1l0,0c0,0,0,0,0,0c0,0,0,0,0,0c0,0,0,0,0,0
				c0,0,0,0,0,0c0,0,0,0,0,0c0,0,0,0,0,0c0-0.9-0.8-1.7-1.6-1.6c-0.4,0-0.8,0.2-1.1,0.4c0,0,0,0,0,0c0,0-0.1-0.1-0.1-0.1
				c-0.1-0.2-0.2-0.4-0.3-0.6c0,0,0,0,0,0c0-0.1-0.1-0.2-0.1-0.3c0-0.1,0-0.2-0.1-0.3c0-0.1,0-0.3,0-0.5c0,0,0,0,0-0.1
				c0-0.1,0.1-0.2,0.1-0.3c0,0,0-0.1,0-0.1c0,0,0-0.1,0.1-0.1c0.1-0.1,0.1-0.2,0.2-0.3c0,0,0.1-0.1,0.1-0.1c0,0,0,0,0,0
				c0.1-0.1,0.1-0.2,0.2-0.2c0.1-0.1,0.1-0.1,0.2-0.2c0.1,0,0.2-0.1,0.2-0.2c0.1-0.1,0.2-0.1,0.4-0.2c0,0,0,0,0,0
				c0.1,0,0.1-0.1,0.1-0.1c0.2-0.1,0.4-0.1,0.6-0.2c0.1,0,0.1,0,0.2,0c0.1,0,0.2,0,0.3,0c0,0,0.1,0,0.1,0c0.2,0,0.3,0.1,0.5,0.1
				c0,0,0,0,0,0c0,0,0,0,0,0C488.8,169.2,488.9,169.3,489.1,169.3z"/>
			<path d="M488.6,174.2C488.6,174.2,488.6,174.2,488.6,174.2C488.7,174.2,488.7,174.2,488.6,174.2
				C488.7,174.2,488.7,174.2,488.6,174.2C488.6,174.1,488.6,174.1,488.6,174.2z"/>
		</g>
		<g>
			<path d="M321.6,136.6c-1-1-2.4-1.7-3.8-1.6c-1.3,0-2.5,0.6-3.5,1.5c-2.2,2.1-2.1,5.8-0.3,8.1c0.1,0.2,0.3,0.3,0.6,0.3
				c0.5,0.8,1.2,1.4,2,1.8c0,0.1,0,0.1,0,0.2c0,0.6-0.1,1.3-0.1,2c-0.1,1.3-0.1,2.7-0.1,4c0,1,0.9,1.9,1.9,1.9c1,0,1.9-0.8,1.9-1.9
				c0-1.3,0-2.7-0.1-4c0-0.7-0.1-1.3-0.1-2c0,0,0,0,0,0c1.6-0.5,2.9-1.8,3.5-3.5C324.5,141.1,323.4,138.3,321.6,136.6z M320.3,142.5
				C320.3,142.5,320.3,142.5,320.3,142.5c-0.1,0.1-0.1,0.2-0.2,0.3c0,0-0.1,0.1-0.1,0.2c0,0,0,0-0.1,0.1c-0.1,0.1-0.2,0.3-0.4,0.4
				c0,0,0,0,0,0c0,0,0,0,0,0c0,0,0,0,0,0c-0.2,0.2-0.1,0.1,0,0c-0.1,0-0.1,0.1-0.2,0.1c-0.1,0.1-0.2,0.1-0.3,0.1c0,0,0,0-0.1,0
				c0,0-0.1,0-0.1,0c-0.1,0-0.2,0-0.2,0.1c0,0,0,0-0.1,0c0,0-0.2,0-0.3,0c-0.1,0-0.2,0-0.3-0.1c-0.1,0-0.3-0.1-0.3-0.1
				c0,0,0,0-0.1,0c0,0,0,0-0.1-0.1c0,0-0.1-0.1-0.1-0.1c-0.1-0.1-0.1-0.1-0.2-0.2c0,0,0,0,0,0c0,0,0,0,0,0c0-0.1-0.1-0.2-0.2-0.3
				c0,0,0-0.1-0.1-0.1c0-0.1,0-0.1,0-0.2c0,0,0-0.1,0-0.1c0,0,0-0.1,0-0.1c0,0,0-0.1,0-0.1c0,0,0,0,0,0c0.2-0.8-0.2-1.8-1.1-2
				c-0.1,0-0.1,0-0.2,0c0-0.1,0-0.2,0.1-0.2c0,0,0,0,0,0c0.1-0.1,0.1-0.2,0.2-0.3c0.1-0.1,0.1-0.2,0.2-0.3c0,0,0,0,0,0c0,0,0,0,0,0
				c0.1-0.1,0.3-0.3,0.4-0.4c0,0,0,0,0,0c0.1,0,0.1-0.1,0.1-0.1c0.1,0,0.2-0.1,0.3-0.2c0,0,0,0,0.1,0c0.1,0,0.2-0.1,0.3-0.1
				c0,0,0.1,0,0.1,0c0.1,0,0.4,0,0.5,0c0,0,0,0,0,0c0.1,0,0.2,0.1,0.3,0.1c0,0,0.1,0,0.1,0c0.1,0,0.2,0.1,0.3,0.2
				c0.1,0.1,0.2,0.2,0.4,0.2c0,0,0.3,0.3,0.4,0.3c0.1,0.1,0.3,0.3,0.2,0.3c0.1,0.2,0.2,0.3,0.3,0.5c0.1,0.1,0.1,0.2,0.1,0.3
				c0.1,0.2,0.1,0.4,0.2,0.5c0,0.1,0,0.2,0.1,0.3c0,0.1,0,0.1,0,0.1c0,0.2,0,0.4,0,0.5c0,0,0,0,0,0c0,0.1,0,0.2,0,0.2
				C320.4,142.3,320.4,142.4,320.3,142.5z"/>
			<polygon points="319.6,143.5 319.6,143.5 319.6,143.5 			"/>
		</g>
	</g>
</g>
<g id="Ebene_3">
</g>
<g id="Ebene_2">
</g>
</svg>
